General
   Complete name : The.Hours.2002.HDTV.720p.x264.AC3-Manila.mkv
   Format : Matroska
   File size : 4.37 GiB
   Duration : 1h 49mn
   Overall bit rate : 5 717 Kbps
   Movie name : The Hours (2002)
   Encoded date : UTC 2008-04-20 10:56:58
 
Video #1
   ID : 1
   Format : AVC
   Format/Info : Advanced Video Codec
   Format profile : High@L4.1
   Format settings, CABAC : Yes
   Format settings, ReFrames : 5 frames
   Muxing mode : Container profile=Unknown@4.1
   Codec ID : V_MPEG4/ISO/AVC
   Duration : 1h 49mn
   Bit rate : 5 155 Kbps
   Nominal bit rate : 5 265 Kbps
   Width : 1 280 pixels
   Height : 720 pixels
   Display aspect ratio : 16:9
   Frame rate : 23.976 fps
   Resolution : 24 bits
   Colorimetry : 4:2:0
   Scan type : Progressive
   Bits/(Pixel*Frame) : 0.233
   Stream size : 3.94 GiB (90%)
   Writing library : x264 core 59 r819 0414d78

Audio #2
   ID : 2
   Format : AC-3
   Format/Info : Audio Coding 3
   Codec ID : A_AC3
   Duration : 1h 49mn
   Bit rate mode : Constant
   Bit rate : 448 Kbps
   Channel(s) : 5 channels
   Channel positions : Front: L C R, Surround: L R
   Sampling rate : 48.0 KHz
   Stream size : 351 MiB (8%)
   Language : English


Storyline:
In 1951, Laura Brown, a pregnant housewife, is planning a party for her husband, but she can't stop reading the novel 'Mrs. Dalloway'. Clarissa Vaughn, a modern woman living in present times is throwing a party for her friend Richard, a famous author dying of AIDS. These two stories are simultaneously linked to the work and life of Virginia Woolf, who's writing the novel mentioned before.


Screenshots: 
http://www.postimg.com/image/28000/27112.jpg 
http://www.postimg.com/image/28000/27113.jpg 
http://www.postimg.com/image/28000/27114.jpg


IMDb: 
http://www.imdb.com/title/tt0274558/

IMDb Rating: 7.6/10